<svg width="15" height="15" viewBox="0 0 15 15" fill="none" xmlns="http://www.w3.org/2000/svg">
<g clip-path="url(#clip0_76_4)">
<path d="M10.534 5.81988C10.2092 5.81988 9.52116 6.04133 8.88337 6.36023C9.14911 5.50393 9.1875 4.48523 9.1875 4.46751C9.1875 3.70866 8.43159 3.09448 7.50148 3.09448C6.57136 3.09448 5.81545 3.71161 5.81545 4.46751C5.81545 4.79232 6.03691 5.48326 6.35876 6.12106C5.50246 5.85531 4.48671 5.81988 4.47195 5.81988C3.71309 5.81988 3.09892 6.57578 3.09892 7.5059C3.09892 8.43602 3.71604 9.19192 4.47195 9.19192C4.7938 9.19192 5.47884 8.97342 6.11368 8.65452C5.85089 9.50787 5.81545 10.5148 5.81545 10.5325C5.81545 11.2913 6.57136 11.9055 7.50148 11.9055C8.43159 11.9055 9.1875 11.2884 9.1875 10.5325C9.1875 10.2136 8.969 9.52854 8.65305 8.8937C9.5064 9.15649 10.5192 9.19192 10.534 9.19192C11.2928 9.19192 11.907 8.43602 11.907 7.5059C11.907 6.57578 11.2899 5.81988 10.534 5.81988ZM6.38829 7.5059V7.51771C5.79478 7.96653 4.72884 8.35925 4.47195 8.35925C4.21506 8.35925 3.93159 8.00787 3.93159 7.5059C3.93159 7.00393 4.21506 6.65255 4.47195 6.65255C4.98278 6.65255 6.01329 6.82086 6.48868 7.05118C6.42372 7.19586 6.38829 7.3494 6.38829 7.5059ZM7.50148 11.0699C6.99951 11.0699 6.64813 10.7864 6.64813 10.5295C6.64813 10.0216 6.81644 8.99704 7.04675 8.51869C7.19439 8.58661 7.35384 8.61909 7.51919 8.61614C7.96506 9.20964 8.35482 10.2726 8.35482 10.5266C8.35482 10.7864 8.00344 11.0699 7.50148 11.0699ZM7.22096 7.49999C7.22096 7.34645 7.34498 7.21948 7.50148 7.21948C7.65502 7.21948 7.78199 7.3435 7.78199 7.49999C7.78199 7.65354 7.65797 7.78051 7.50148 7.78051C7.34793 7.78051 7.22096 7.65354 7.22096 7.49999ZM7.95029 6.49015C7.81152 6.42814 7.65797 6.39566 7.50148 6.39566H7.49557C7.04675 5.80511 6.65108 4.73031 6.65108 4.47047C6.65108 4.21358 7.00246 3.93011 7.50443 3.93011C8.0064 3.93011 8.35777 4.21358 8.35777 4.47047C8.35482 5.02263 8.1688 6.02952 7.95029 6.49015ZM10.531 8.35925C10.0202 8.35925 8.98967 8.19094 8.51427 7.96062C8.57923 7.81889 8.61171 7.66535 8.61171 7.50885V7.49704C9.20522 7.04822 10.2712 6.65551 10.5281 6.65551C10.7879 6.65255 11.0714 7.00393 11.0714 7.5059C11.0714 8.00787 10.7879 8.35925 10.531 8.35925Z" fill="black"/>
<path d="M13.7525 0H1.25049C0.5625 0 0.00147629 0.561024 0.00147629 1.24902V13.748C0.00147629 14.439 0.5625 15 1.25049 15H13.7495C14.4375 15 14.9985 14.439 14.9985 13.751V1.24902C15.0015 0.561024 14.4405 0 13.7525 0ZM13.7525 14.1673H1.25049C1.02018 14.1673 0.834153 13.9813 0.834153 13.751V1.24902C0.834153 1.0187 1.02018 0.832677 1.25049 0.832677H13.7495C13.9798 0.832677 14.1658 1.0187 14.1658 1.24902V13.751H14.1688C14.1688 13.9813 13.9828 14.1673 13.7525 14.1673Z" fill="black"/>
<path d="M7.50148 1.67126C4.28888 1.67126 1.67274 4.28741 1.67274 7.5C1.67274 10.7126 4.28593 13.3287 7.50148 13.3287C10.717 13.3287 13.3302 10.7126 13.3302 7.5C13.3302 4.28741 10.7141 1.67126 7.50148 1.67126ZM7.50148 12.4961C4.74656 12.4961 2.50541 10.2549 2.50541 7.5C2.50541 4.74508 4.74656 2.50394 7.50148 2.50394C10.2564 2.50394 12.4975 4.74508 12.4975 7.5C12.4975 10.2549 10.2564 12.4961 7.50148 12.4961Z" fill="black"/>
</g>
<defs>
<clipPath id="clip0_76_4">
<rect width="15" height="15" fill="white"/>
</clipPath>
</defs>
</svg>
