<svg width="15" height="15" viewBox="0 0 15 15" fill="none" xmlns="http://www.w3.org/2000/svg">
<g clip-path="url(#clip0_76_31)">
<path d="M14.9306 11.2878C14.9306 10.9235 14.6353 10.6282 14.2711 10.6282H13.9329C13.9283 10.392 13.8158 10.1827 13.6427 10.0464C13.7679 10.0419 13.868 9.93934 13.868 9.81294C13.868 9.71622 13.8093 9.63327 13.7257 9.59761C14.262 9.33148 14.2772 8.62323 14.0266 7.85375L13.5349 6.25015H13.6341C13.7633 6.25015 13.868 6.14539 13.868 6.01629C13.868 5.90507 13.7903 5.81215 13.6863 5.7884C13.8655 5.6406 13.9798 5.41683 13.9798 5.16641C13.9798 4.87326 13.8228 4.61743 13.5888 4.47641H14.2711C14.6354 4.47641 14.9306 4.18108 14.9306 3.81678C14.9306 3.45251 14.6353 3.15723 14.2711 3.15723H0.728979C0.364716 3.15723 0.0693882 3.45255 0.0693882 3.81678C0.0693882 4.18108 0.364716 4.47641 0.728979 4.47641H1.41126C1.17724 4.61743 1.02023 4.87326 1.02023 5.16641C1.02023 5.41683 1.13447 5.6406 1.31374 5.7884C1.20971 5.81215 1.13209 5.90507 1.13209 6.01629C1.13209 6.14539 1.23677 6.25015 1.36595 6.25015H1.4651L0.973463 7.85375C0.7228 8.62335 0.738105 9.33152 1.27436 9.59765C1.19069 9.63331 1.13209 9.71622 1.13209 9.81294C1.13209 9.93934 1.2322 10.0419 1.35739 10.0464C1.18435 10.1827 1.07184 10.3921 1.06719 10.6282H0.728979C0.364716 10.6282 0.0693882 10.9235 0.0693882 11.2878L8.58307e-06 11.8428H15L14.9306 11.2878ZM4.10124 9.59761C4.01756 9.63327 3.95896 9.71618 3.95896 9.8129C3.95896 9.9393 4.05904 10.0419 4.18427 10.0464C4.01122 10.1826 3.89871 10.392 3.89407 10.6282H2.58498C2.58038 10.392 2.46787 10.1826 2.29482 10.0464C2.42001 10.0419 2.52021 9.9393 2.52021 9.8129C2.52021 9.71618 2.46153 9.63323 2.37789 9.59757C2.91411 9.33144 2.92942 8.62319 2.67875 7.85371L2.18708 6.25011H2.2863C2.41545 6.25011 2.52021 6.14535 2.52021 6.01625C2.52021 5.90503 2.44251 5.81211 2.33848 5.78836C2.5177 5.64055 2.63199 5.41679 2.63199 5.16637C2.63199 4.87322 2.47498 4.61739 2.24095 4.47637H4.23814C4.00411 4.61739 3.8471 4.87322 3.8471 5.16637C3.8471 5.41679 3.96135 5.64055 4.14057 5.78836C4.03654 5.81211 3.95892 5.90503 3.95892 6.01625C3.95892 6.14535 4.0636 6.25011 4.19279 6.25011H4.29193L3.8003 7.85371C3.54963 8.62331 3.56494 9.33148 4.10124 9.59761ZM6.92811 9.59761C6.84444 9.63327 6.78584 9.71618 6.78584 9.8129C6.78584 9.9393 6.88595 10.0419 7.01114 10.0464C6.8381 10.1826 6.72559 10.392 6.72094 10.6282H5.41186C5.40725 10.392 5.29474 10.1826 5.12166 10.0464C5.24685 10.0419 5.34704 9.9393 5.34704 9.8129C5.34704 9.71618 5.28836 9.63323 5.20473 9.59757C5.74095 9.33144 5.75625 8.62319 5.50559 7.85371L5.01391 6.25011H5.11314C5.24229 6.25011 5.34704 6.14535 5.34704 6.01625C5.34704 5.90503 5.26934 5.81211 5.16531 5.78836C5.34458 5.64055 5.45882 5.41679 5.45882 5.16637C5.45882 4.87322 5.30181 4.61739 5.06779 4.47637H7.06497C6.83095 4.61739 6.67393 4.87322 6.67393 5.16637C6.67393 5.41679 6.78818 5.64055 6.96745 5.78836C6.86342 5.81211 6.7858 5.90503 6.7858 6.01625C6.7858 6.14535 6.89047 6.25011 7.01966 6.25011H7.1188L6.62717 7.85371C6.37651 8.62331 6.39181 9.33148 6.92811 9.59761ZM9.75499 9.59761C9.67131 9.63327 9.61271 9.71618 9.61271 9.8129C9.61271 9.9393 9.71282 10.0419 9.83802 10.0464C9.66497 10.1826 9.55246 10.392 9.54782 10.6282H8.23873C8.23413 10.392 8.12162 10.1826 7.94853 10.0464C8.07372 10.0419 8.17391 9.9393 8.17391 9.8129C8.17391 9.71618 8.11524 9.63323 8.0316 9.59757C8.56782 9.33144 8.58313 8.62319 8.33246 7.85371L7.84079 6.25011H7.94001C8.06916 6.25011 8.17391 6.14535 8.17391 6.01625C8.17391 5.90503 8.09622 5.81211 7.99219 5.78836C8.17145 5.64055 8.2857 5.41679 8.2857 5.16637C8.2857 4.87322 8.12868 4.61739 7.89466 4.47637H9.89185C9.65782 4.61739 9.50081 4.87322 9.50081 5.16637C9.50081 5.41679 9.61506 5.64055 9.79432 5.78836C9.69029 5.81211 9.61267 5.90503 9.61267 6.01625C9.61267 6.14535 9.71735 6.25011 9.84654 6.25011H9.94568L9.45405 7.85371C9.20338 8.62331 9.21869 9.33148 9.75499 9.59761ZM12.6222 9.59761C12.5386 9.63327 12.48 9.71618 12.48 9.8129C12.48 9.9393 12.5801 10.0419 12.7053 10.0464C12.5322 10.1826 12.4197 10.392 12.4151 10.6282H11.0656C11.061 10.392 10.9485 10.1826 10.7754 10.0464C10.9006 10.0419 11.0008 9.9393 11.0008 9.8129C11.0008 9.71618 10.9421 9.63323 10.8585 9.59757C11.3947 9.33144 11.41 8.62319 11.1593 7.85371L10.6677 6.25011H10.7669C10.896 6.25011 11.0008 6.14535 11.0008 6.01625C11.0008 5.90503 10.9231 5.81211 10.8191 5.78836C10.9983 5.64055 11.1126 5.41679 11.1126 5.16637C11.1126 4.87322 10.9556 4.61739 10.7215 4.47637H12.7591C12.5251 4.61739 12.3681 4.87322 12.3681 5.16637C12.3681 5.41679 12.4823 5.64055 12.6616 5.78836C12.5575 5.81211 12.4799 5.90503 12.4799 6.01625C12.4799 6.14535 12.5846 6.25011 12.7138 6.25011H12.8129L12.3213 7.85371C12.0706 8.62331 12.0859 9.33148 12.6222 9.59761Z" fill="black"/>
</g>
<defs>
<clipPath id="clip0_76_31">
<rect width="15" height="15" fill="white"/>
</clipPath>
</defs>
</svg>
