<svg width="17" height="17" viewBox="0 0 17 17" fill="none" xmlns="http://www.w3.org/2000/svg">
<path d="M1 1V16M1 12.7857H16M16 16V9.78571C16 8.58561 16 7.9855 15.8183 7.52714C15.6586 7.12396 15.4036 6.79611 15.09 6.59071C14.7335 6.35714 14.2667 6.35714 13.3333 6.35714H7.66667V12.4935M4.33333 8.5H4.34167M5.16667 8.5C5.16667 9.09175 4.79357 9.57143 4.33333 9.57143C3.8731 9.57143 3.5 9.09175 3.5 8.5C3.5 7.90825 3.8731 7.42857 4.33333 7.42857C4.79357 7.42857 5.16667 7.90825 5.16667 8.5Z" stroke="black" stroke-opacity="0.27" stroke-linecap="round" stroke-linejoin="round"/>
</svg>
