<svg width="30" height="30" viewBox="0 0 30 30" fill="none" xmlns="http://www.w3.org/2000/svg">
<g clip-path="url(#clip0_32_15)">
<path d="M2.62717 23.8178L27.3753 23.8228L24.5625 12.5561H5.43257L2.62717 23.8178ZM0.830148 25.0795L29.1723 25.0869L24.7335 7.74374H23.6714V8.97337L24.1426 10.8647L5.86962 10.8104L6.34817 8.89189V7.74374H5.2641L0.830148 25.0795ZM15.7654 8.58818V7.74374H14.2492V8.58818H15.7654ZM23.6689 7.04744H24.6578L24.6749 0.849911H5.17376L5.33735 7.04744H6.34817V4.96349C6.34817 4.80547 6.41166 4.65979 6.5142 4.55608C6.61675 4.45238 6.76081 4.38818 6.91707 4.38818H13.6803C13.8366 4.38818 13.9806 4.45238 14.0832 4.55608C14.1857 4.65979 14.2492 4.80547 14.2492 4.96349V7.04744H15.7654V5.07954C15.7654 4.92152 15.8289 4.77584 15.9315 4.67213C16.034 4.56843 16.1781 4.50423 16.3343 4.50423H23.0976C23.2538 4.50423 23.3979 4.56843 23.5004 4.67213C23.603 4.77584 23.6665 4.92152 23.6665 5.07954V7.04744H23.6689ZM22.9657 5.21781H16.4711V9.18818H22.9657V5.21781ZM13.546 5.10176H7.05136V9.18818H13.546V5.10176ZM5.02482 0.170898H24.8214V0.173368C24.9654 0.173368 25.0973 0.232627 25.19 0.328923H25.1925C25.2877 0.425219 25.3463 0.558553 25.3463 0.704232H25.3439L25.3243 7.36102L29.9268 25.3437C29.9292 25.3561 29.9316 25.3709 29.9341 25.3857V25.3882V25.3907V25.3931V25.3956C29.9365 25.4079 29.9365 25.4203 29.9365 25.4326L29.9976 29.7956L30 29.8302C30 30.0178 29.8486 30.1709 29.6631 30.1709H0.334502V30.1684H0.33206C0.146498 30.166 1.90735e-06 30.0129 1.90735e-06 29.8252L0.061042 25.4302C0.061042 25.4153 0.0634836 25.4005 0.0634836 25.3857C0.0659252 25.3709 0.0683668 25.3561 0.0708084 25.3413L4.67079 7.35115L4.67323 7.3388C4.61463 5.14868 4.49988 2.88448 4.49988 0.701763H4.49744C4.49744 0.556084 4.55604 0.425219 4.65126 0.331392C4.74404 0.240034 4.871 0.180775 5.01018 0.175837L5.02482 0.170898ZM0.725159 25.7586L0.673885 29.4845H29.3261L29.2748 25.766L0.725159 25.7586Z" fill="black" fill-opacity="0.9"/>
</g>
<defs>
<clipPath id="clip0_32_15">
<rect width="30" height="30" fill="white"/>
</clipPath>
</defs>
</svg>
