<svg width="15" height="15" viewBox="0 0 15 15" fill="none" xmlns="http://www.w3.org/2000/svg">
<path d="M9.97266 4.15312H3.19453C2.87093 4.15312 2.60859 4.41546 2.60859 4.73906V12.2039C2.60859 12.5275 2.87093 12.7898 3.19453 12.7898H9.97266C10.2963 12.7898 10.5586 12.5275 10.5586 12.2039V4.73906C10.5586 4.41546 10.2963 4.15312 9.97266 4.15312Z" stroke="black" stroke-opacity="0.69" stroke-width="0.5"/>
<path d="M4.53516 3.33516V3.06797C4.5256 2.8509 4.6023 2.63886 4.74853 2.47814C4.89475 2.31743 5.09862 2.22109 5.31563 2.21016H11.6109C11.8279 2.22109 12.0318 2.31743 12.178 2.47814C12.3243 2.63886 12.401 2.8509 12.3914 3.06797V9.98906C12.401 10.2061 12.3243 10.4182 12.178 10.5789C12.0318 10.7396 11.8279 10.8359 11.6109 10.8469H11.3414" stroke="black" stroke-opacity="0.69" stroke-width="0.5"/>
</svg>
