<svg width="15" height="15" viewBox="0 0 15 15" fill="none" xmlns="http://www.w3.org/2000/svg">
<path d="M15 7.0544H14.4325C14.7855 6.62886 14.998 6.08295 14.998 5.4884L15 4.2978H14.4325C14.7855 3.87226 14.998 3.32635 14.998 2.73179L15 1.5412H0V2.73103C0 3.32596 0.212578 3.87215 0.565635 4.29777H0V5.48763C0 6.08257 0.212578 6.62875 0.565635 7.05437H0V8.24424C0 8.83917 0.212578 9.38535 0.565635 9.81097H0V11.0008C0 12.3561 1.10268 13.4588 2.45801 13.4588H12.54C13.8953 13.4588 14.998 12.3561 14.998 11.0016L15 9.811H14.4325C14.7855 9.38547 14.998 8.83955 14.998 8.245L15 7.0544ZM14.1068 11.0008C14.1068 11.8647 13.404 12.5675 12.5401 12.5675H2.45801C1.59404 12.5675 0.891182 11.8647 0.891182 11.0008V10.7021H2.45801H12.54H14.1074L14.1068 11.0008ZM14.1068 8.24424C14.1068 9.10817 13.404 9.81097 12.5401 9.81097H2.45801C1.59404 9.81097 0.891182 9.10814 0.891182 8.24424V7.94555H2.45801H12.54H14.1074L14.1068 8.24424ZM14.1068 5.48763C14.1068 6.35157 13.404 7.05437 12.5401 7.05437H2.45801C1.59404 7.05437 0.891182 6.35154 0.891182 5.48763V5.18895H2.45801H12.54H14.1074L14.1068 5.48763ZM14.1068 2.73103C14.1068 3.59497 13.404 4.29777 12.5401 4.29777H2.45801C1.59404 4.29777 0.891182 3.59494 0.891182 2.73103V2.43235H14.1074L14.1068 2.73103Z" fill="black"/>
</svg>
