<svg width="15" height="15" viewBox="0 0 15 15" fill="none" xmlns="http://www.w3.org/2000/svg">
<path d="M5.59342 6.4422C5.24774 6.4422 4.96778 6.72216 4.96778 7.06763C4.96778 7.41281 5.24774 7.6928 5.59342 7.6928C5.93862 7.6928 6.21861 7.41281 6.21861 7.06763C6.21858 6.72219 5.93859 6.4422 5.59342 6.4422Z" fill="black"/>
<path d="M9.40708 6.4422C9.06187 6.4422 8.78165 6.72216 8.78165 7.06763C8.78165 7.41281 9.06187 7.6928 9.40708 7.6928C9.75249 7.6928 10.0325 7.41281 10.0325 7.06763C10.0325 6.72219 9.75249 6.4422 9.40708 6.4422Z" fill="black"/>
<path d="M11.595 3.94861H3.40506C2.77561 3.94861 2.26362 4.4606 2.26362 5.09001V13.8586C2.26362 14.488 2.77561 15 3.40506 15H11.595C12.2246 15 12.7364 14.488 12.7364 13.8586V5.09001C12.7364 4.4606 12.2246 3.94861 11.595 3.94861ZM5.45883 14.2796C5.46073 14.2652 5.46721 14.2527 5.46721 14.2378L5.59339 11.3753L5.71931 14.2378C5.71931 14.2527 5.72581 14.2652 5.72771 14.2796H5.45883ZM9.27275 14.2796C9.27463 14.2652 9.28113 14.2527 9.28113 14.2378L9.40705 11.3753L9.533 14.2378C9.533 14.2527 9.5395 14.2652 9.54149 14.2796H9.27275ZM12.016 13.8586C12.016 14.0908 11.8272 14.2796 11.595 14.2796H10.1592C10.1611 14.2652 10.1676 14.2527 10.1676 14.2378L10.2928 9.58181L10.4077 10.8324C10.414 10.9668 10.5282 11.0706 10.6624 11.0639C10.7966 11.0576 10.9003 10.9437 10.8939 10.8092V8.75031C10.8939 7.88863 9.85122 7.84635 9.40702 7.84635C8.96306 7.84635 7.92041 7.88863 7.92041 8.75031V10.8092C7.91402 10.9436 8.01773 11.0575 8.15194 11.0639C8.28615 11.0705 8.40003 10.9668 8.40665 10.8324L8.52149 9.58181L8.64647 14.2378C8.64647 14.2527 8.65298 14.2652 8.655 14.2796H6.34544C6.34746 14.2652 6.35393 14.2527 6.35393 14.2378L6.47915 9.58181L6.59376 10.8324C6.60012 10.9668 6.71426 11.0706 6.84847 11.0639C6.98267 11.0576 7.08639 10.9437 7.08 10.8092V8.75031C7.08 7.88863 6.03735 7.84635 5.59339 7.84635C5.14942 7.84635 4.10651 7.88863 4.10651 8.75031V10.8092C4.10013 10.9436 4.20384 11.0575 4.33805 11.0639C4.47226 11.0705 4.58637 10.9668 4.59275 10.8324L4.7076 9.58181L4.83281 14.2378C4.83281 14.2527 4.83932 14.2652 4.84119 14.2796H3.40503C3.173 14.2796 2.98397 14.0908 2.98397 13.8586V5.09001C2.98397 4.85778 3.173 4.66899 3.40503 4.66899H11.5949C11.8272 4.66899 12.016 4.85778 12.016 5.09001L12.016 13.8586Z" fill="black"/>
<path d="M8.39229 2.07258L9.24806 1.21682V3.1408C9.24806 3.31635 9.39029 3.45861 9.56581 3.45861C9.74136 3.45861 9.88359 3.31638 9.88359 3.1408V1.21682L10.7396 2.07258C10.8016 2.13475 10.8828 2.16568 10.9643 2.16568C11.0456 2.16568 11.1271 2.13475 11.189 2.07258C11.3133 1.94854 11.3133 1.74724 11.189 1.62296L9.79055 0.224707L9.56584 0L9.34113 0.224707L7.94267 1.62296C7.81863 1.74724 7.81863 1.94854 7.94267 2.07258C8.06692 2.19662 8.26825 2.19662 8.39229 2.07258Z" fill="black"/>
<path d="M5.35784 3.36547L5.58255 3.59018L5.80726 3.36547L7.20577 1.96695C7.32981 1.84291 7.32981 1.64161 7.20577 1.51757C7.08173 1.39353 6.8804 1.39353 6.75636 1.51757L5.90033 2.37333V0.449404C5.90033 0.273857 5.75812 0.131592 5.58258 0.131592C5.40703 0.131592 5.26479 0.273828 5.26479 0.449404V2.37336L4.40903 1.5176C4.28499 1.39355 4.08369 1.39355 3.95938 1.5176C3.83534 1.64164 3.83534 1.84294 3.95938 1.96698L5.35784 3.36547Z" fill="black"/>
</svg>
