<svg width="15" height="15" viewBox="0 0 15 15" fill="none" xmlns="http://www.w3.org/2000/svg">
<path d="M1.26604 0C0.582047 0 0.0182779 0.406641 0.0182779 0.9V5.60625C-0.00609263 5.66484 -0.00609263 5.72578 0.0182779 5.78438V13.2C0.0182779 13.6934 0.582047 14.1 1.26604 14.1V14.4C1.26604 14.7281 1.64297 15 2.09789 15H3.34565C3.80057 15 4.1775 14.7281 4.1775 14.4V14.1H10.8323V14.4C10.8323 14.7281 11.2092 15 11.6641 15H12.9119C13.3668 15 13.7437 14.7281 13.7437 14.4V14.1C14.4277 14.1 14.9915 13.6934 14.9915 13.2V5.75625C15.0028 5.71641 15.0028 5.67422 14.9915 5.63438V0.9C14.9915 0.406641 14.4277 0 13.7437 0H1.26604ZM1.26604 0.6H13.7437C13.9777 0.6 14.1596 0.73125 14.1596 0.9V5.4H0.850122V0.9C0.850122 0.73125 1.03209 0.6 1.26604 0.6ZM2.89074 1.79063C2.87287 1.79297 2.855 1.79648 2.83875 1.8C2.64541 1.83164 2.50894 1.95703 2.51381 2.1V4.2C2.51219 4.30781 2.59017 4.40859 2.72015 4.46367C2.85012 4.51758 3.00934 4.51758 3.13932 4.46367C3.26929 4.40859 3.34728 4.30781 3.34565 4.2V2.1C3.35053 2.01328 3.30179 1.93008 3.21568 1.87148C3.12794 1.81172 3.00934 1.78242 2.89074 1.79063ZM0.850122 6H14.1596V13.2C14.1596 13.3688 13.9777 13.5 13.7437 13.5H1.26604C1.03209 13.5 0.850122 13.3688 0.850122 13.2V6ZM2.89074 6.89063C2.87287 6.89297 2.855 6.89648 2.83875 6.9C2.64541 6.93164 2.50894 7.05703 2.51381 7.2V9.3C2.51219 9.40781 2.59017 9.50859 2.72015 9.56367C2.85012 9.61758 3.00934 9.61758 3.13932 9.56367C3.26929 9.50859 3.34728 9.40781 3.34565 9.3V7.2C3.35053 7.11328 3.30179 7.03008 3.21568 6.97148C3.12794 6.91172 3.00934 6.88242 2.89074 6.89063ZM2.09789 14.1H3.34565V14.4H2.09789V14.1ZM11.6641 14.1H12.9119V14.4H11.6641V14.1Z" fill="black"/>
</svg>
