<svg width="15" height="15" viewBox="0 0 15 15" fill="none" xmlns="http://www.w3.org/2000/svg">
<g clip-path="url(#clip0_74_12)">
<path d="M6.5625 4.21875C6.92629 4.22197 7.2857 4.13928 7.61151 3.97741C7.93731 3.81554 8.22031 3.57906 8.4375 3.2872C8.65691 3.57668 8.94037 3.81142 9.26567 3.97303C9.59097 4.13465 9.94927 4.21875 10.3125 4.21875C10.6757 4.21875 11.034 4.13465 11.3593 3.97303C11.6846 3.81142 11.9681 3.57668 12.1875 3.2872C12.4047 3.57906 12.6877 3.81554 13.0135 3.97741C13.3393 4.13928 13.6987 4.22197 14.0625 4.21875V3.28125C13.7433 3.26261 13.4368 3.14941 13.1821 2.95605C12.9274 2.76269 12.736 2.49792 12.6322 2.19544C12.6006 2.10239 12.5408 2.0215 12.4611 1.96406C12.3814 1.90662 12.2858 1.87548 12.1875 1.875C12.0894 1.87426 11.9936 1.90466 11.9138 1.96183C11.8341 2.019 11.7745 2.09998 11.7437 2.19314C11.6401 2.49611 11.4487 2.76138 11.1938 2.95516C10.9389 3.14895 10.6321 3.26246 10.3125 3.28125C9.99326 3.26261 9.68678 3.14941 9.43208 2.95605C9.17737 2.76269 8.98596 2.49792 8.8822 2.19544C8.85065 2.10239 8.79084 2.0215 8.71113 1.96406C8.63141 1.90662 8.53575 1.87548 8.4375 1.875C8.33907 1.87289 8.24261 1.90276 8.16259 1.96012C8.08257 2.01748 8.0233 2.09925 7.99369 2.19314C7.89012 2.49611 7.69869 2.76138 7.44381 2.95516C7.18893 3.14895 6.88213 3.26246 6.5625 3.28125H6.09375V2.8125C6.09375 2.31522 5.89621 1.83831 5.54458 1.48667C5.19294 1.13504 4.71603 0.9375 4.21875 0.9375C3.72147 0.9375 3.24456 1.13504 2.89292 1.48667C2.54129 1.83831 2.34375 2.31522 2.34375 2.8125V8.09142C1.78646 8.47665 1.3618 9.02466 1.12789 9.66047C0.893975 10.2963 0.862226 10.9888 1.03699 11.6434C1.21175 12.2979 1.58448 12.8825 2.10419 13.3171C2.62389 13.7517 3.26519 14.0151 3.94033 14.0713C4.61548 14.1274 5.29149 13.9736 5.87587 13.6309C6.46025 13.2882 6.92447 12.7732 7.205 12.1566C7.48553 11.5399 7.56867 10.8516 7.44304 10.1859C7.31742 9.52018 6.98917 8.90953 6.5032 8.4375H6.5625C6.92629 8.44072 7.2857 8.35803 7.61151 8.19616C7.93731 8.03429 8.22031 7.79781 8.4375 7.50595C8.65691 7.79543 8.94037 8.03017 9.26567 8.19178C9.59097 8.3534 9.94927 8.4375 10.3125 8.4375C10.6757 8.4375 11.034 8.3534 11.3593 8.19178C11.6846 8.03017 11.9681 7.79543 12.1875 7.50595C12.4047 7.79781 12.6877 8.03429 13.0135 8.19616C13.3393 8.35803 13.6987 8.44072 14.0625 8.4375V7.5C13.7433 7.48136 13.4368 7.36816 13.1821 7.1748C12.9274 6.98144 12.736 6.71667 12.6322 6.41419C12.6006 6.32114 12.5408 6.24025 12.4611 6.18281C12.3814 6.12537 12.2858 6.09423 12.1875 6.09375C12.0894 6.09301 11.9936 6.12341 11.9138 6.18058C11.8341 6.23775 11.7745 6.31873 11.7437 6.41189C11.6401 6.71486 11.4487 6.98013 11.1938 7.17391C10.9389 7.3677 10.6321 7.48121 10.3125 7.5C9.99326 7.48136 9.68678 7.36816 9.43208 7.1748C9.17737 6.98144 8.98596 6.71667 8.8822 6.41419C8.85065 6.32114 8.79084 6.24025 8.71113 6.18281C8.63141 6.12537 8.53575 6.09423 8.4375 6.09375C8.33907 6.09164 8.24261 6.12151 8.16259 6.17887C8.08257 6.23623 8.0233 6.318 7.99369 6.41189C7.89012 6.71486 7.69869 6.98013 7.44381 7.17391C7.18893 7.3677 6.88213 7.48121 6.5625 7.5H6.09375V4.21875H6.5625ZM3.28125 2.8125C3.28125 2.56386 3.38002 2.3254 3.55584 2.14959C3.73165 1.97377 3.97011 1.875 4.21875 1.875C4.46739 1.875 4.70585 1.97377 4.88166 2.14959C5.05748 2.3254 5.15625 2.56386 5.15625 2.8125V5.625H3.28125V2.8125ZM4.21875 13.125C3.7029 13.1254 3.20136 12.9554 2.79199 12.6415C2.38263 12.3277 2.08834 11.8874 1.95481 11.3891C1.82128 10.8909 1.85599 10.3625 2.05354 9.88594C2.25109 9.40942 2.60044 9.01145 3.04734 8.75381L3.28125 8.6183V6.5625H5.15625V8.6183L5.39016 8.75381C5.83706 9.01145 6.18641 9.40942 6.38396 9.88594C6.58151 10.3625 6.61622 10.8909 6.48269 11.3891C6.34916 11.8874 6.05487 12.3277 5.6455 12.6415C5.23614 12.9554 4.7346 13.1254 4.21875 13.125Z" fill="black"/>
</g>
<defs>
<clipPath id="clip0_74_12">
<rect width="15" height="15" fill="white"/>
</clipPath>
</defs>
</svg>
