<svg width="15" height="15" viewBox="0 0 15 15" fill="none" xmlns="http://www.w3.org/2000/svg">
<path d="M12.8033 2.19668C11.3867 0.780117 9.50332 0 7.5 0C5.49668 0 3.61327 0.780117 2.19668 2.19668C0.780088 3.61324 0 5.49668 0 7.5C0 9.50332 0.780117 11.3867 2.19668 12.8033C3.61324 14.2199 5.49668 15 7.5 15C9.50332 15 11.3867 14.2199 12.8033 12.8033C14.2199 11.3868 15 9.50332 15 7.5C15 5.49668 14.2199 3.61327 12.8033 2.19668ZM12.7409 11.4451C12.2923 11.1415 11.8228 10.8792 11.336 10.6603C11.551 9.82187 11.6787 8.91158 11.7105 7.96875H14.0456C13.9535 9.26766 13.4818 10.4633 12.7409 11.4451ZM0.954434 7.96875H3.28945C3.32133 8.91161 3.449 9.82189 3.66398 10.6603C3.17719 10.8792 2.70768 11.1415 2.25914 11.4451C1.51822 10.4633 1.04654 9.26766 0.954434 7.96875ZM2.25902 3.55506C2.70756 3.85863 3.17707 4.12093 3.66393 4.33992C3.44895 5.17825 3.3213 6.08845 3.28942 7.03125H0.954434C1.04654 5.7324 1.51819 4.53686 2.25902 3.55506ZM10.5652 2.30757C10.3935 1.98554 10.2079 1.69494 10.0105 1.43707C10.8035 1.76666 11.5185 2.24736 12.1192 2.84323C11.7786 3.067 11.4248 3.2642 11.06 3.43459C10.9168 3.03428 10.7515 2.65685 10.5652 2.30757ZM10.1854 3.78425C9.32962 4.07112 8.42646 4.21875 7.5 4.21875C6.57355 4.21875 5.67038 4.07112 4.81459 3.78425C5.41409 2.07762 6.40462 0.9375 7.5 0.9375C8.59538 0.9375 9.58591 2.07762 10.1854 3.78425ZM4.22763 7.03125C4.25856 6.20092 4.37074 5.40759 4.54805 4.6841C5.48953 4.99594 6.48217 5.15625 7.5 5.15625C8.51783 5.15625 9.51047 4.99594 10.452 4.6841C10.6293 5.40759 10.7414 6.20089 10.7724 7.03125H4.22763ZM10.7724 7.96875C10.7414 8.79914 10.6293 9.5925 10.4519 10.316C9.51035 10.0041 8.51774 9.84375 7.5 9.84375C6.48226 9.84375 5.48965 10.0041 4.54808 10.316C4.37074 9.5925 4.25856 8.79914 4.22763 7.96875H10.7724ZM4.43476 2.30757C4.24849 2.65685 4.08319 3.03428 3.94002 3.43456C3.57521 3.2642 3.22137 3.06697 2.88079 2.8432C3.48147 2.2473 4.19643 1.76663 4.98949 1.43704C4.79212 1.69494 4.60649 1.98554 4.43476 2.30757ZM3.94005 11.5656C4.08319 11.9658 4.24849 12.3432 4.43473 12.6924C4.60649 13.0145 4.79209 13.3051 4.98946 13.5629C4.19649 13.2333 3.48158 12.7527 2.88094 12.1569C3.22151 11.9332 3.5753 11.736 3.94005 11.5656ZM4.81465 11.2159C5.6705 10.9289 6.57363 10.7812 7.5 10.7812C8.42637 10.7812 9.3295 10.9289 10.1854 11.2159C9.58585 12.9224 8.59535 14.0625 7.5 14.0625C6.40465 14.0625 5.41415 12.9224 4.81465 11.2159ZM10.5652 12.6924C10.7515 12.3432 10.9168 11.9658 11.0599 11.5656C11.4247 11.736 11.7785 11.9332 12.119 12.1569C11.5184 12.7527 10.8035 13.2334 10.0105 13.5629C10.2079 13.3051 10.3935 13.0145 10.5652 12.6924ZM11.7105 7.03125C11.6787 6.08848 11.551 5.17825 11.336 4.33992C11.8229 4.12093 12.2924 3.85863 12.7409 3.55506C13.4818 4.53683 13.9534 5.73237 14.0455 7.03125H11.7105Z" fill="black"/>
</svg>
