<svg width="15" height="15" viewBox="0 0 15 15" fill="none" xmlns="http://www.w3.org/2000/svg">
<g clip-path="url(#clip0_74_10)">
<path d="M7.68312 0.00247571C11.8237 0.103726 15.0987 3.54248 14.9975 7.68373C14.8962 11.8244 11.4575 15.0994 7.31625 14.9981C3.17562 14.8969 -0.0993762 11.4581 0.00187383 7.31685L0.00249883 7.30123C0.112499 3.16623 3.54875 -0.0987743 7.68312 0.00247571ZM7.68312 0.776226C3.97 0.673726 0.876874 3.60123 0.774374 7.31435C0.671874 11.0275 3.59937 14.1206 7.3125 14.2231C11.0256 14.3256 14.1187 11.3981 14.2212 7.68498L14.2219 7.66935C14.3156 3.96185 11.3906 0.878101 7.68312 0.776226ZM11.3344 5.96498H12.8344C13.4444 5.96498 13.2606 5.41935 13.2606 5.41935C12.9777 4.61918 12.5279 3.88826 11.9412 3.27498L11.9381 3.28185C11.3461 2.65826 10.6325 2.16283 9.84125 1.82623C9.77913 1.79317 9.70909 1.77789 9.63885 1.78207C9.56861 1.78625 9.50088 1.80973 9.44312 1.84992C9.38536 1.8901 9.3398 1.94545 9.31146 2.00985C9.28312 2.07426 9.2731 2.14524 9.2825 2.21498C9.255 2.71623 9.19375 3.71185 9.19375 3.71185C9.19375 3.71185 9.20375 4.19248 8.80187 4.19248C8.29375 4.19935 7.87125 4.16498 7.87125 4.16498C7.58143 4.13309 7.30802 4.01436 7.08687 3.82435L5.5425 2.19435C5.43477 2.07218 5.28684 1.99264 5.12551 1.97017C4.96418 1.94769 4.80014 1.98377 4.66312 2.07185C3.29058 2.78007 2.23786 3.98266 1.7175 5.43685C1.5575 5.8831 1.92562 5.9406 2.17437 5.9406H5.92437C6.11752 5.92374 6.31199 5.95016 6.49363 6.01796C6.67527 6.08575 6.8395 6.19319 6.97437 6.33248C7.465 6.84748 7.80625 7.1881 7.80625 7.1881C7.80625 7.1881 8.10625 7.5256 8.59375 8.03685C8.86312 8.32373 8.98875 8.71747 8.93437 9.10748C8.93437 9.10748 8.75 12.6975 8.75 12.8575C8.73312 13.1062 8.77375 13.4781 9.23062 13.3419C10.7088 12.8978 11.9636 11.9097 12.7419 10.5769C12.8375 10.4446 12.8825 10.2824 12.8688 10.1198C12.855 9.95719 12.7834 9.8049 12.6669 9.6906L11.1225 8.06123C10.94 7.83193 10.8319 7.55239 10.8125 7.25998C10.8125 7.25998 10.7987 6.83373 10.8331 6.32935C10.8606 5.92748 11.3344 5.96498 11.3344 5.96498ZM9.85812 6.82373C9.56125 7.11685 8.93062 6.96685 8.47062 6.4831C8.01062 5.99873 7.89312 5.35748 8.18937 5.07435C8.48625 4.79123 9.12812 4.92498 9.58875 5.40935C10.0494 5.8931 10.155 6.5306 9.85812 6.82373Z" fill="black"/>
</g>
<defs>
<clipPath id="clip0_74_10">
<rect width="15" height="15" fill="white"/>
</clipPath>
</defs>
</svg>
