<svg width="15" height="15" viewBox="0 0 15 15" fill="none" xmlns="http://www.w3.org/2000/svg">
<g clip-path="url(#clip0_76_44)">
<path fill-rule="evenodd" clip-rule="evenodd" d="M6.875 3.75C5.83947 3.75 5 4.58947 5 5.625V10.625C5 10.9702 5.27983 11.25 5.625 11.25C5.97018 11.25 6.25 10.9702 6.25 10.625V8.75H7.50281C7.63431 8.74919 7.76625 8.73375 7.89575 8.71219C8.11244 8.67606 8.41094 8.60262 8.717 8.44963C9.02556 8.29531 9.35306 8.05412 9.60206 7.68062C9.85369 7.30319 10 6.82806 10 6.24997C10 5.67187 9.85369 5.19674 9.60206 4.81932C9.35306 4.44582 9.0255 4.20462 8.717 4.05036C8.41094 3.89733 8.11244 3.82393 7.89575 3.78781C7.7655 3.76609 7.63231 3.75006 7.5 3.75H6.875ZM6.25 7.5V5.625C6.25 5.27982 6.52981 5 6.875 5L7.50025 5.00011C7.72519 5.00761 7.95738 5.06808 8.158 5.1684C8.31825 5.24851 8.45944 5.35887 8.562 5.51271C8.66194 5.66263 8.75 5.89061 8.75 6.24997C8.75 6.60938 8.66194 6.83731 8.562 6.98725C8.45944 7.14112 8.31819 7.25144 8.158 7.33156C7.95738 7.43188 7.72519 7.49237 7.50019 7.49987L6.25 7.5Z" fill="#0F0F0F"/>
<path fill-rule="evenodd" clip-rule="evenodd" d="M12.5 0.625C13.5356 0.625 14.375 1.46447 14.375 2.5V12.5C14.375 13.5356 13.5356 14.375 12.5 14.375H2.5C1.46447 14.375 0.625 13.5356 0.625 12.5V2.5C0.625 1.46447 1.46447 0.625 2.5 0.625H12.5ZM12.5 1.875C12.8452 1.875 13.125 2.15482 13.125 2.5V12.5C13.125 12.8452 12.8452 13.125 12.5 13.125H2.5C2.15482 13.125 1.875 12.8452 1.875 12.5V2.5C1.875 2.15482 2.15482 1.875 2.5 1.875H12.5Z" fill="#0F0F0F"/>
</g>
<defs>
<clipPath id="clip0_76_44">
<rect width="15" height="15" fill="white"/>
</clipPath>
</defs>
</svg>
