<svg width="15" height="15" viewBox="0 0 15 15" fill="none" xmlns="http://www.w3.org/2000/svg">
<g clip-path="url(#clip0_74_15)">
<path d="M14.6606 0H0.339367C0.151934 0 0 0.151968 0 0.339367V14.6606C0 14.848 0.151934 15 0.339367 15H14.6606C14.8481 15 15 14.848 15 14.6606V0.339367C15 0.151968 14.8481 0 14.6606 0ZM14.3213 14.3213H0.678733V0.678733H14.3213V14.3213Z" fill="black"/>
<path d="M9.29528 5.02898C9.28842 5.02399 9.28133 5.01965 9.27424 5.01527C8.77377 4.6569 8.16111 4.44568 7.49999 4.44568C6.83887 4.44568 6.22621 4.6569 5.72575 5.01527C5.71866 5.01965 5.71157 5.02403 5.70471 5.02898C5.69724 5.03441 5.69032 5.04025 5.68343 5.04615C4.93299 5.60319 4.44569 6.49572 4.44569 7.49998C4.44569 9.18412 5.81585 10.5543 7.49999 10.5543C9.18413 10.5543 10.5543 9.18412 10.5543 7.49998C10.5543 6.49572 10.067 5.60319 9.31655 5.04615C9.30967 5.04028 9.30274 5.03441 9.29528 5.02898ZM7.49999 8.51808C6.93861 8.51808 6.48189 8.06136 6.48189 7.49998C6.48189 6.9386 6.93861 6.48188 7.49999 6.48188C8.06137 6.48188 8.51809 6.9386 8.51809 7.49998C8.51809 8.06136 8.06137 8.51808 7.49999 8.51808ZM8.60694 5.39903L8.20231 5.95596C7.98814 5.85812 7.75045 5.80314 7.49999 5.80314C7.24954 5.80314 7.01185 5.85812 6.79767 5.95593L6.39305 5.39899C6.72383 5.22402 7.10042 5.12441 7.49999 5.12441C7.89956 5.12441 8.27616 5.22402 8.60694 5.39903ZM5.84443 5.79867L6.24875 6.35519C5.9722 6.65719 5.80316 7.05917 5.80316 7.49998C5.80316 7.56456 5.80713 7.62816 5.81419 7.69087L5.15945 7.90362C5.13685 7.77235 5.12443 7.63762 5.12443 7.49998C5.12443 6.83343 5.40077 6.23051 5.84443 5.79867ZM5.36938 8.5491L6.02446 8.33624C6.26283 8.75516 6.67401 9.06347 7.16063 9.16267V9.85094C6.37326 9.73776 5.7096 9.23723 5.36938 8.5491ZM7.83936 9.8509V9.16264C8.32598 9.06344 8.73719 8.75513 8.97552 8.33621L9.6306 8.54906C9.29039 9.23723 8.62672 9.73776 7.83936 9.8509ZM9.87556 7.49998C9.87556 7.63762 9.86314 7.77235 9.84054 7.90365L9.1858 7.69091C9.19285 7.62819 9.19683 7.56456 9.19683 7.50001C9.19683 7.05921 9.02779 6.65723 8.75124 6.35523L9.15556 5.7987C9.59921 6.23051 9.87556 6.83343 9.87556 7.49998Z" fill="black"/>
<path d="M1.69683 11.8777V12.9638C1.69683 13.1512 1.84876 13.3032 2.03619 13.3032H12.9638C13.1512 13.3032 13.3032 13.1512 13.3032 12.9638V5.23002C13.3032 5.04262 13.1512 4.89065 12.9638 4.89065C12.7764 4.89065 12.6244 5.04262 12.6244 5.23002V12.6244H2.37556V11.8777C2.69412 11.7445 2.91855 11.4297 2.91855 11.0634V9.36652C2.91855 9.00017 2.69412 8.68538 2.37556 8.55214V6.4479C2.69412 6.31467 2.91855 5.99984 2.91855 5.63352V3.93669C2.91855 3.57035 2.69412 3.25555 2.37556 3.12231V2.37557H12.6244V4.0724C12.6244 4.2598 12.7764 4.41177 12.9638 4.41177C13.1512 4.41177 13.3032 4.2598 13.3032 4.0724V2.0362C13.3032 1.84881 13.1512 1.69684 12.9638 1.69684H2.03619C1.84876 1.69684 1.69683 1.84881 1.69683 2.0362V3.12228C1.37826 3.25551 1.15384 3.57031 1.15384 3.93666V5.63349C1.15384 5.99984 1.37826 6.31463 1.69683 6.44787V8.55211C1.37826 8.68534 1.15384 9.00017 1.15384 9.36649V11.0633C1.15384 11.4297 1.37826 11.7445 1.69683 11.8777ZM2.23981 9.36652V11.0634C2.23981 11.1756 2.14849 11.267 2.03619 11.267C1.9239 11.267 1.83257 11.1756 1.83257 11.0634V9.36652C1.83257 9.25422 1.9239 9.1629 2.03619 9.1629C2.14849 9.1629 2.23981 9.25422 2.23981 9.36652ZM1.83257 5.63349V3.93666C1.83257 3.82436 1.9239 3.73304 2.03619 3.73304C2.14849 3.73304 2.23981 3.82436 2.23981 3.93666V5.63349C2.23981 5.74579 2.14849 5.83711 2.03619 5.83711C1.9239 5.83711 1.83257 5.74579 1.83257 5.63349Z" fill="black"/>
</g>
<defs>
<clipPath id="clip0_74_15">
<rect width="15" height="15" fill="white"/>
</clipPath>
</defs>
</svg>
