<svg width="15" height="15" viewBox="0 0 15 15" fill="none" xmlns="http://www.w3.org/2000/svg">
<g clip-path="url(#clip0_76_14)">
<path d="M6.29375 14.0625C6.95304 14.0625 7.4875 13.528 7.4875 12.8687C7.4875 12.2094 6.95304 11.675 6.29375 11.675C5.63446 11.675 5.1 12.2094 5.1 12.8687C5.1 13.528 5.63446 14.0625 6.29375 14.0625Z" stroke="#020202" stroke-miterlimit="10"/>
<path d="M11.6625 14.0625C12.3218 14.0625 12.8562 13.528 12.8562 12.8687C12.8562 12.2094 12.3218 11.675 11.6625 11.675C11.0032 11.675 10.4688 12.2094 10.4688 12.8687C10.4688 13.528 11.0032 14.0625 11.6625 14.0625Z" stroke="#020202" stroke-miterlimit="10"/>
<path d="M0.325 0.937503H1.9875C2.36873 0.936833 2.74027 1.05765 3.0482 1.28241C3.35613 1.50718 3.58443 1.82421 3.7 2.1875L5.69375 8.69375H5.4C5.00383 8.69375 4.62389 8.85113 4.34376 9.13126C4.06363 9.41139 3.90625 9.79134 3.90625 10.1875C3.9079 10.5826 4.06601 10.9609 4.34596 11.2397C4.62592 11.5185 5.00491 11.675 5.4 11.675H11.65" stroke="#020202" stroke-miterlimit="10"/>
<path d="M4.50625 3.32501H14.05V4.51876L12.8563 8.69376H5.69375" stroke="#020202" stroke-miterlimit="10"/>
</g>
<defs>
<clipPath id="clip0_76_14">
<rect width="15" height="15" fill="white"/>
</clipPath>
</defs>
</svg>
