<svg width="15" height="15" viewBox="0 0 15 15" fill="none" xmlns="http://www.w3.org/2000/svg">
<path d="M5.517 11.2843C4.79942 11.175 4.11143 10.9215 3.49457 10.5389V12.37C3.49457 12.5384 3.52774 12.7051 3.59219 12.8607C3.65664 13.0163 3.7511 13.1577 3.87018 13.2768C3.98927 13.3958 4.13064 13.4903 4.28623 13.5548C4.44182 13.6192 4.60858 13.6524 4.77699 13.6524H7.85179C8.12902 13.6517 8.39853 13.561 8.6197 13.3939C8.84086 13.2267 9.0017 12.9922 9.07795 12.7256C8.20076 13.0842 7.2621 13.2684 6.31446 13.2679C5.29307 13.2902 4.76961 11.9629 5.517 11.2843Z" fill="black"/>
<path d="M12.4667 5.12881C11.6309 5.12199 11.3241 6.25347 12.0348 6.67119C11.8664 8.06867 11.1909 9.35572 10.1365 10.2882C9.08206 11.2206 7.72204 11.7336 6.31446 11.7298C6.21247 11.7298 6.11467 11.7703 6.04256 11.8425C5.97045 11.9146 5.92993 12.0124 5.92993 12.1143C5.92993 12.2163 5.97045 12.3141 6.04256 12.3862C6.11467 12.4584 6.21247 12.4989 6.31446 12.4989C7.9178 12.5033 9.4665 11.9165 10.6642 10.8505C11.8619 9.78459 12.6245 8.31445 12.8061 6.72141C12.9804 6.64382 13.1227 6.50872 13.2093 6.33874C13.2958 6.16875 13.3213 5.97419 13.2816 5.78763C13.2418 5.60106 13.1392 5.43382 12.9909 5.31389C12.8425 5.19396 12.6575 5.12862 12.4667 5.12881Z" fill="black"/>
<path d="M10.9287 5.9619C10.9286 4.73812 10.4425 3.56447 9.57716 2.69913C8.71181 1.83379 7.53816 1.34765 6.31438 1.34766C5.0906 1.34766 3.91695 1.83381 3.05161 2.69915C2.18627 3.5645 1.70013 4.73815 1.70014 5.96193C1.94315 12.0826 10.6865 12.0809 10.9287 5.9619ZM6.31446 5.06471C7.49769 5.09472 7.4975 6.82933 6.31439 6.85915C5.1311 6.82914 5.13129 5.09457 6.31446 5.06471Z" fill="black"/>
</svg>
