<svg width="30" height="30" viewBox="0 0 30 30" fill="none" xmlns="http://www.w3.org/2000/svg">
<g clip-path="url(#clip0_32_35)">
<path d="M24.9153 5.74017V8.49712C24.9153 8.57797 24.8492 8.64407 24.7678 8.64407H24.4068V1.01695H29.4915C29.7722 1.01695 30 0.789661 30 0.508475C30 0.227288 29.7722 0 29.4915 0H23.8983C23.8759 0 23.8566 0.0101695 23.8353 0.0127119C23.7986 0.0172881 23.7631 0.0213559 23.728 0.0340678C23.6944 0.0462712 23.6659 0.0645763 23.6364 0.0828814C23.6166 0.0950847 23.5942 0.100169 23.5759 0.115424L1.95305 17.8937C1.73644 18.0722 1.70492 18.3925 1.88339 18.6092C1.98407 18.7317 2.12949 18.7947 2.27644 18.7947C2.39034 18.7947 2.50475 18.7571 2.59932 18.6788L3.55932 17.8897V24.9153H1.16441C0.522203 24.9153 0 25.4375 0 26.0792V30H30V4.57627H26.0797C25.4375 4.57627 24.9153 5.09847 24.9153 5.74017ZM20.9949 8.64407C20.3527 8.64407 19.8305 9.16627 19.8305 9.80797V12.7119H19.322V4.92966L23.3898 1.58492V8.64407H20.9949ZM16.4186 12.7119C15.7764 12.7119 15.2542 13.2341 15.2542 13.8758V16.6327C15.2542 16.7136 15.1881 16.7797 15.1068 16.7797H14.7458V8.69237L18.3051 5.76559V12.7119H16.4186ZM11.3339 16.7797C10.6917 16.7797 10.1695 17.3019 10.1695 17.9436V20.7005C10.1695 20.7814 10.1034 20.8475 10.022 20.8475H9.66102V12.8731L13.7288 9.52831V16.7797H11.3339ZM4.57627 17.0537L8.64407 13.709V20.8475H6.24915C5.60695 20.8475 5.08475 21.3697 5.08475 22.0114V24.7683C5.08475 24.8492 5.01864 24.9153 4.93729 24.9153H4.57627V17.0537ZM28.9831 28.9831H1.01695V26.0792C1.01695 25.9983 1.08305 25.9322 1.16441 25.9322H4.93729C5.57949 25.9322 6.1017 25.41 6.1017 24.7683V22.0114C6.1017 21.9305 6.1678 21.8644 6.24915 21.8644H10.0225C10.6647 21.8644 11.1869 21.3422 11.1869 20.7005V17.9436C11.1864 17.8627 11.2525 17.7966 11.3339 17.7966H15.1073C15.7495 17.7966 16.2717 17.2744 16.2717 16.6327V13.8758C16.2712 13.7949 16.3373 13.7288 16.4186 13.7288H20.8475V9.80797C20.8475 9.72712 20.9136 9.66102 20.9949 9.66102H24.7683C25.4105 9.66102 25.9327 9.13881 25.9327 8.49712V5.74017C25.9322 5.65932 25.9983 5.59322 26.0797 5.59322H28.9831V28.9831Z" fill="black" fill-opacity="0.9"/>
</g>
<defs>
<clipPath id="clip0_32_35">
<rect width="30" height="30" fill="white"/>
</clipPath>
</defs>
</svg>
