<svg width="15" height="15" viewBox="0 0 15 15" fill="none" xmlns="http://www.w3.org/2000/svg">
<path d="M10.625 13.125L7.5 10.625L4.375 13.125M4.25 10.625H10.75C11.8001 10.625 12.3251 10.625 12.7262 10.4206C13.0791 10.2409 13.3659 9.95406 13.5456 9.60125C13.75 9.20013 13.75 8.67512 13.75 7.625V4.875C13.75 3.8249 13.75 3.29985 13.5456 2.89877C13.3659 2.54596 13.0791 2.25913 12.7262 2.07936C12.3251 1.875 11.8001 1.875 10.75 1.875H4.25C3.1999 1.875 2.67485 1.875 2.27377 2.07936C1.92096 2.25913 1.63413 2.54596 1.45436 2.89877C1.25 3.29985 1.25 3.8249 1.25 4.875V7.625C1.25 8.67512 1.25 9.20013 1.45436 9.60125C1.63413 9.95406 1.92096 10.2409 2.27377 10.4206C2.67485 10.625 3.1999 10.625 4.25 10.625Z" stroke="black" stroke-linecap="round" stroke-linejoin="round"/>
</svg>
