<svg width="15" height="15" viewBox="0 0 15 15" fill="none" xmlns="http://www.w3.org/2000/svg">
<path d="M1.15379 0V15H1.49997H13.5001H13.8462V14.6539V0H1.15379ZM13.1539 14.3077H1.84608V3.41558H13.1539V14.3077H13.1539ZM13.1539 2.95403H1.84608V0.692314H13.1539V2.95403H13.1539Z" fill="black"/>
<path d="M9.44707 2.10575C9.67011 2.10575 9.85093 1.92494 9.85093 1.70189C9.85093 1.47885 9.67011 1.29803 9.44707 1.29803C9.22403 1.29803 9.04321 1.47885 9.04321 1.70189C9.04321 1.92494 9.22403 2.10575 9.44707 2.10575Z" fill="black"/>
<path d="M7.46343 2.10575C7.68647 2.10575 7.86728 1.92494 7.86728 1.70189C7.86728 1.47885 7.68647 1.29803 7.46343 1.29803C7.24038 1.29803 7.05957 1.47885 7.05957 1.70189C7.05957 1.92494 7.24038 2.10575 7.46343 2.10575Z" fill="black"/>
<path d="M11.2933 2.10578C11.5162 2.10578 11.6972 1.92505 11.6972 1.70195C11.6972 1.47883 11.5162 1.2981 11.2933 1.2981C11.0702 1.2981 10.8895 1.47883 10.8895 1.70195C10.8895 1.92505 11.0702 2.10578 11.2933 2.10578Z" fill="black"/>
<path d="M7.49982 11.5455C9.35106 11.5455 10.8566 10.0399 10.8566 8.18896C10.8566 6.33828 9.35106 4.83221 7.49982 4.83221C5.64905 4.83221 4.14331 6.33828 4.14331 8.18896C4.14331 10.0399 5.64905 11.5455 7.49982 11.5455ZM6.419 9.11767C6.27231 9.11767 6.15363 8.99846 6.15363 8.85242C6.15363 8.70637 6.27229 8.58714 6.419 8.58714C6.56493 8.58714 6.6837 8.70637 6.6837 8.85242C6.6837 8.99844 6.56493 9.11767 6.419 9.11767ZM7.70637 9.80794C7.58288 9.80794 7.48283 9.70786 7.48283 9.58505C7.48283 9.46153 7.58288 9.36192 7.70637 9.36192C7.82921 9.36192 7.92891 9.46153 7.92891 9.58505C7.92894 9.70789 7.82921 9.80794 7.70637 9.80794ZM4.93682 8.18896C4.93682 6.77325 6.08411 5.62549 7.49982 5.62549C8.91059 5.62549 10.0545 6.76513 10.0633 8.17341C7.56 10.3822 7.69857 5.92229 4.94426 8.37599C4.93975 8.3147 4.93682 8.25227 4.93682 8.18896Z" fill="black"/>
</svg>
